<?xml version="1.0" standalone="no"?>
<!DOCTYPE svg PUBLIC "-//W3C//DTD SVG 20010904//EN"
 "http://www.w3.org/TR/2001/REC-SVG-20010904/DTD/svg10.dtd">
<svg version="1.0" xmlns="http://www.w3.org/2000/svg"
 width="181.000000pt" height="181.000000pt" viewBox="0 0 181.000000 181.000000"
 preserveAspectRatio="xMidYMid meet">

<g transform="translate(0.000000,181.000000) scale(0.100000,-0.100000)"
fill="#000000" stroke="none">
<path d="M738 1780 c-243 -51 -430 -175 -568 -375 -114 -166 -170 -406 -141
-605 81 -554 632 -896 1158 -720 94 31 212 96 269 147 21 19 49 42 61 50 13 8
21 19 18 23 -2 4 11 20 30 36 19 16 35 34 35 41 0 6 5 13 12 15 6 2 12 12 14
21 1 9 -2 14 -8 11 -5 -3 -7 -8 -4 -11 3 -3 -5 -14 -17 -24 -12 -10 -19 -18
-15 -19 8 0 -118 -119 -167 -157 -142 -108 -312 -163 -510 -163 -241 0 -432
77 -603 244 -176 171 -262 376 -262 624 0 190 45 334 151 488 85 123 228 244
353 299 134 59 190 70 366 70 158 -1 169 -2 260 -33 52 -17 129 -52 172 -76
76 -45 227 -175 240 -207 3 -9 14 -19 23 -23 9 -3 13 -10 10 -16 -3 -6 1 -13
9 -16 9 -3 13 -11 9 -17 -4 -6 -1 -7 7 -2 10 6 10 11 -3 20 -9 7 -14 15 -11
18 3 3 -38 50 -92 105 -144 144 -268 213 -459 253 -112 23 -224 23 -337 -1z"/>
<path d="M830 1754 c-121 -21 -154 -29 -214 -50 -254 -88 -456 -310 -527 -579
-32 -117 -32 -310 -1 -420 41 -145 121 -285 220 -388 47 -48 182 -139 255
-171 184 -82 412 -93 606 -29 124 40 290 142 283 173 -2 7 3 10 11 7 20 -7 72
47 61 64 -6 10 -11 5 -20 -16 -11 -26 -13 -27 -19 -12 -7 17 -9 17 -26 1 -10
-9 -16 -21 -13 -26 3 -5 0 -8 -7 -6 -20 4 -80 -43 -72 -56 3 -6 3 -8 -2 -4 -4
4 -40 -10 -79 -31 -232 -125 -511 -130 -744 -12 -195 98 -355 299 -413 516
-30 112 -30 288 0 400 85 315 328 534 653 591 186 33 403 -13 556 -117 26 -18
52 -32 59 -32 7 0 11 -5 10 -10 -1 -5 3 -11 10 -14 8 -3 11 3 8 17 -2 11 0 18
5 15 5 -3 7 -14 5 -25 -2 -12 9 -30 31 -50 40 -35 41 -35 41 -16 0 8 -12 20
-26 26 -14 7 -21 15 -14 17 8 3 5 12 -8 28 -23 26 -109 90 -109 80 0 -3 -10 3
-21 14 -27 25 -154 76 -239 96 -68 16 -217 27 -260 19z m575 -182 c-3 -3 -11
0 -18 7 -9 10 -8 11 6 5 10 -3 15 -9 12 -12z m80 -1251 c3 -5 1 -12 -5 -16 -5
-3 -10 -1 -10 5 0 6 -5 8 -12 4 -7 -4 -8 -3 -4 4 9 14 23 15 31 3z m-45 -42
c0 -5 -4 -9 -8 -9 -5 0 -9 7 -9 15 0 8 4 12 9 9 4 -3 8 -9 8 -15z"/>
<path d="M740 1669 c-52 -11 -99 -24 -104 -30 -6 -5 -17 -9 -26 -9 -27 0 -165
-87 -225 -142 -106 -96 -185 -227 -227 -375 -32 -113 -32 -297 1 -403 88 -284
278 -469 561 -546 92 -25 278 -23 381 4 91 24 181 68 264 127 63 45 146 125
130 125 -5 0 1 7 13 16 12 8 20 20 17 25 -4 5 1 12 9 15 9 3 16 13 16 22 0 13
-3 13 -14 -3 -7 -11 -14 -23 -15 -28 0 -4 -17 -21 -36 -38 -19 -17 -32 -35
-29 -40 3 -5 -3 -12 -13 -16 -10 -4 -40 -26 -68 -50 -68 -59 -212 -128 -307
-147 -372 -75 -727 116 -868 466 -41 104 -54 192 -46 318 12 212 80 356 239
506 85 81 174 135 285 172 68 23 94 26 222 26 125 1 155 -2 220 -22 107 -34
178 -73 271 -148 45 -36 83 -63 86 -61 2 3 -28 32 -68 66 -190 160 -433 222
-669 170z"/>
<path d="M512 1408 l3 -83 342 -3 342 -2 -2 30 -2 30 -312 0 -313 0 0 25 0 25
345 0 345 0 0 -75 0 -75 -195 0 -195 0 0 -410 0 -410 30 0 30 0 0 380 0 380
133 0 c118 1 130 2 113 15 -19 14 -18 15 10 16 25 0 26 2 9 9 -16 6 -10 9 25
11 l45 4 0 80 0 80 -34 3 c-19 2 -40 10 -48 18 -13 12 -11 15 9 23 15 6 -101
10 -330 10 l-353 1 3 -82z"/>
<path d="M1543 1445 c0 -8 4 -12 8 -9 4 2 10 -2 12 -8 4 -8 6 -9 6 -2 1 6 -5
17 -12 23 -10 8 -14 7 -14 -4z"/>
<path d="M1510 1443 c0 -5 10 -18 23 -29 l22 -19 -20 25 c-11 14 -21 27 -22
29 -2 2 -3 0 -3 -6z"/>
<path d="M1490 1399 c14 -12 25 -26 25 -31 0 -5 8 -15 17 -22 10 -7 15 -16 11
-19 -3 -4 -1 -7 6 -7 7 0 9 -5 5 -12 -4 -7 -3 -8 4 -4 14 9 0 41 -24 54 -9 5
-15 12 -15 15 2 15 -25 47 -39 47 -10 -1 -7 -7 10 -21z"/>
<path d="M1570 1360 c0 -5 5 -10 11 -10 5 0 7 5 4 10 -3 6 -8 10 -11 10 -2 0
-4 -4 -4 -10z"/>
<path d="M1666 1342 c-2 -4 -1 -14 3 -21 6 -9 11 -10 15 -2 4 6 2 11 -4 11 -6
0 -8 5 -5 10 3 6 4 10 1 10 -3 0 -7 -4 -10 -8z"/>
<path d="M510 1250 l0 -30 125 0 125 0 0 -435 0 -435 140 0 140 0 0 411 0 410
-27 -3 -28 -3 -3 -377 -2 -378 -80 0 -80 0 0 435 0 435 -155 0 -155 0 0 -30z"/>
<path d="M1725 1210 c-3 -5 -1 -10 4 -10 6 0 11 5 11 10 0 6 -2 10 -4 10 -3 0
-8 -4 -11 -10z"/>
<path d="M1615 1190 c-3 -5 -1 -10 4 -10 6 0 11 5 11 10 0 6 -2 10 -4 10 -3 0
-8 -4 -11 -10z"/>
<path d="M1747 1153 c-4 -3 -7 -11 -7 -17 0 -6 5 -5 12 2 6 6 9 14 7 17 -3 3
-9 2 -12 -2z"/>
<path d="M1635 1130 c-3 -5 -1 -10 4 -10 6 0 11 5 11 10 0 6 -2 10 -4 10 -3 0
-8 -4 -11 -10z"/>
<path d="M1755 1110 c-3 -5 -1 -10 4 -10 6 0 11 5 11 10 0 6 -2 10 -4 10 -3 0
-8 -4 -11 -10z"/>
<path d="M1645 1090 c-3 -5 -1 -10 4 -10 6 0 11 5 11 10 0 6 -2 10 -4 10 -3 0
-8 -4 -11 -10z"/>
<path d="M1766 1055 c-3 -8 -1 -15 4 -15 6 0 10 7 10 15 0 8 -2 15 -4 15 -2 0
-6 -7 -10 -15z"/>
<path d="M1657 1043 c-4 -3 -7 -11 -7 -17 0 -6 5 -5 12 2 6 6 9 14 7 17 -3 3
-9 2 -12 -2z"/>
<path d="M1701 974 c0 -11 3 -14 6 -6 3 7 2 16 -1 19 -3 4 -6 -2 -5 -13z"/>
<path d="M1776 959 c-8 -42 -7 -81 2 -96 4 -6 8 20 8 58 1 38 0 69 -1 69 -1 0
-5 -14 -9 -31z"/>
<path d="M1660 935 c0 -8 5 -15 10 -15 6 0 10 7 10 15 0 8 -4 15 -10 15 -5 0
-10 -7 -10 -15z"/>
<path d="M1660 896 c0 -9 5 -16 10 -16 6 0 10 4 10 9 0 6 -4 13 -10 16 -5 3
-10 -1 -10 -9z"/>
<path d="M1701 844 c0 -11 3 -14 6 -6 3 7 2 16 -1 19 -3 4 -6 -2 -5 -13z"/>
<path d="M1760 780 c0 -5 5 -10 11 -10 5 0 7 5 4 10 -3 6 -8 10 -11 10 -2 0
-4 -4 -4 -10z"/>
<path d="M1573 545 c0 -8 4 -12 9 -9 5 3 6 10 3 15 -9 13 -12 11 -12 -6z"/>
<path d="M1555 451 c-3 -5 -2 -12 3 -15 5 -3 9 1 9 9 0 17 -3 19 -12 6z"/>
<path d="M1583 435 c0 -8 4 -12 9 -9 5 3 6 10 3 15 -9 13 -12 11 -12 -6z"/>
<path d="M1635 440 c3 -5 8 -10 11 -10 2 0 4 5 4 10 0 6 -5 10 -11 10 -5 0 -7
-4 -4 -10z"/>
<path d="M1519 400 c-13 -10 -20 -19 -16 -20 4 0 17 9 29 20 28 26 17 26 -13
0z"/>
<path d="M1560 399 c0 -5 5 -7 10 -4 6 3 10 8 10 11 0 2 -4 4 -10 4 -5 0 -10
-5 -10 -11z"/>
</g>
</svg>
